# xmcd CD database file
#
# Track frame offsets:
#	150
#	16019
#	40010
#	64117
#	78310
#	102313
#	114933
#	134730
#	159119
#	185870
#	205928
#	221255
#
# Disc length: 3276 seconds
#
# Revision: 1
# Processed by: cddbd v1.5.2PL0 Copyright (c) Steve Scherf et al.
# Submitted via: CDex 1.51
#
DISCID=9a0cca0c
DTITLE=Vince Guaraldi - Essential Standards
DYEAR=2009
DGENRE=Jazz
TTITLE0=Softly, As in a Morning Sunrise
TTITLE1=The Girl From Ipanema
TTITLE2=Moon River
TTITLE3=Cast Your Fate To The Wind
TTITLE4=Willow Weep For Me
TTITLE5=Fascinating Rhythm
TTITLE6=Since I Fell For You
TTITLE7=The Days Of Wine And Roses
TTITLE8=On Green Dolphin Street
TTITLE9=Autumn Leaves
TTITLE10=Corcovado
TTITLE11=Greensleeves
EXTD=YEAR: 2009
EXTT0=
EXTT1=
EXTT2=
EXTT3=
EXTT4=
EXTT5=
EXTT6=
EXTT7=
EXTT8=
EXTT9=
EXTT10=
EXTT11=
PLAYORDER=
